<svg xmlns="http://www.w3.org/2000/svg" viewBox="0 0 14 12"  class="cheatmeal-icon" data-v-57b52fda="" data-v-0920dd28=""><path d="M8.8 7.7999L10.8274 5.7725C10.9456 5.65434 11.0859 5.56062 11.2403 5.49668C11.3948 5.43275 11.5603 5.39987 11.7274 5.3999H11.8C12.1183 5.3999 12.4235 5.52633 12.6485 5.75137C12.8736 5.97642 13 6.28164 13 6.5999C13 6.91816 12.8736 7.22339 12.6485 7.44843C12.4235 7.67347 12.1183 7.7999 11.8 7.7999H2.2C1.88174 7.7999 1.57652 7.67347 1.35147 7.44843C1.12643 7.22339 1 6.91816 1 6.5999C1 6.28164 1.12643 5.97642 1.35147 5.75137C1.57652 5.52633 1.88174 5.3999 2.2 5.3999H4.909C5.86362 5.39995 6.77913 5.77914 7.4542 6.4541L8.8 7.7999ZM1.6 7.7999H12.4V8.9999C12.4 9.47729 12.2104 9.93513 11.8728 10.2727C11.5352 10.6103 11.0774 10.7999 10.6 10.7999H3.4C2.92261 10.7999 2.46477 10.6103 2.12721 10.2727C1.78964 9.93513 1.6 9.47729 1.6 8.9999V7.7999Z" stroke="white" stroke-linecap="round" stroke-linejoin="round" data-v-57b52fda=""></path> <path d="M8.80048 2.99995H8.79988M7.00048 3.59995H6.99988M6.99988 1.19995C4.22608 1.19995 1.94068 2.25355 1.63468 4.79995C1.59508 5.12995 1.86868 5.39995 2.19988 5.39995H11.7999C12.1311 5.39995 12.4047 5.12995 12.3651 4.79995C12.0591 2.25355 9.77368 1.19995 6.99988 1.19995Z" stroke="white" stroke-linecap="round" stroke-linejoin="round" ></path></svg>
