<svg fill="#565656" data-v-7f508192="" width="44" height="44" viewBox="0 0 44 44" xmlns="http://www.w3.org/2000/svg"
     data-v-54011018="">
    <path d="M12.9999 19.0135V19C12.9998 17.6666 13.3948 16.3631 14.1348 15.2539C14.8748 14.1446 15.9267 13.2794 17.1579 12.7674C18.3891 12.2554 19.7444 12.1195 21.0527 12.3769C22.361 12.6342 23.5639 13.2733 24.5094 14.2135C25.2533 13.8464 26.0843 13.692 26.9104 13.7674C27.7366 13.8429 28.5258 14.1453 29.1909 14.6412C29.856 15.1371 30.3711 15.8072 30.6792 16.5775C30.9873 17.3478 31.0765 18.1883 30.9369 19.006C31.1421 19.0251 31.3412 19.0862 31.5218 19.1857C31.7024 19.2851 31.8605 19.4207 31.9863 19.584C32.1122 19.7472 32.203 19.9347 32.2532 20.1346C32.3033 20.3346 32.3117 20.5427 32.2779 20.746C31.5999 24.8245 29.9229 27.406 27.2499 28.492V29.5C27.2499 30.0968 27.0128 30.6691 26.5909 31.091C26.1689 31.513 25.5966 31.75 24.9999 31.75H18.9999C18.4031 31.75 17.8308 31.513 17.4089 31.091C16.9869 30.6691 16.7499 30.0968 16.7499 29.5V28.492C14.0769 27.406 12.3999 24.8245 11.7219 20.746C11.6891 20.5481 11.6965 20.3456 11.7434 20.1506C11.7903 19.9555 11.8759 19.7718 11.995 19.6104C12.1142 19.449 12.2645 19.3132 12.4371 19.2109C12.6097 19.1087 12.8011 19.042 12.9999 19.015V19.0135ZM14.4999 19H15.9999C15.9999 18.0055 16.395 17.0516 17.0982 16.3484C17.8015 15.6451 18.7553 15.25 19.7499 15.25C20.7444 15.25 21.6983 15.6451 22.4015 16.3484C23.1048 17.0516 23.4999 18.0055 23.4999 19H24.9999C24.9999 17.6077 24.4467 16.2723 23.4622 15.2877C22.4776 14.3032 21.1423 13.75 19.7499 13.75C18.3575 13.75 17.0221 14.3032 16.0376 15.2877C15.053 16.2723 14.4999 17.6077 14.4999 19ZM17.4999 19H21.9999C21.9999 18.4033 21.7628 17.831 21.3409 17.409C20.9189 16.9871 20.3466 16.75 19.7499 16.75C19.1531 16.75 18.5808 16.9871 18.1589 17.409C17.7369 17.831 17.4999 18.4033 17.4999 19ZM27.7989 19H29.4054C29.5186 18.5567 29.5292 18.0935 29.4362 17.6455C29.3433 17.1975 29.1493 16.7766 28.8691 16.4149C28.5889 16.0533 28.2298 15.7603 27.8192 15.5585C27.4086 15.3566 26.9574 15.2511 26.4999 15.25C26.1399 15.25 25.7979 15.313 25.4799 15.4285C25.7454 15.8545 25.9644 16.3135 26.1324 16.795C26.4181 16.7242 26.7183 16.7388 26.9958 16.837C27.2732 16.9352 27.5158 17.1128 27.6933 17.3476C27.8707 17.5824 27.9754 17.8642 27.9941 18.158C28.0129 18.4517 27.945 18.7445 27.7989 19ZM25.7499 28.75H18.2499V29.5C18.2499 29.6989 18.3289 29.8897 18.4695 30.0304C18.6102 30.171 18.801 30.25 18.9999 30.25H24.9999C25.1988 30.25 25.3895 30.171 25.5302 30.0304C25.6709 29.8897 25.7499 29.6989 25.7499 29.5V28.75ZM17.7219 27.25H26.2779C28.6569 26.485 30.1629 24.322 30.7989 20.5H13.2009C13.8369 24.322 15.3429 26.485 17.7219 27.25Z"></path>
</svg>
