<svg fill='none' data-v-7f508192="" width="44" height="44" viewBox="0 0 44 44" xmlns="http://www.w3.org/2000/svg" data-v-54011018=""><path d="M18 28.5C18.5304 28.5 19.0391 28.2893 19.4142 27.9142C19.7893 27.5391 20 27.0304 20 26.5C20 25.9696 19.7893 25.4609 19.4142 25.0858C19.0391 24.7107 18.5304 24.5 18 24.5C17.4696 24.5 16.9609 24.7107 16.5858 25.0858C16.2107 25.4609 16 25.9696 16 26.5C16 27.0304 16.2107 27.5391 16.5858 27.9142C16.9609 28.2893 17.4696 28.5 18 28.5V28.5ZM28 28.5C28.5304 28.5 29.0391 28.2893 29.4142 27.9142C29.7893 27.5391 30 27.0304 30 26.5C30 25.9696 29.7893 25.4609 29.4142 25.0858C29.0391 24.7107 28.5304 24.5 28 24.5C27.4696 24.5 26.9609 24.7107 26.5858 25.0858C26.2107 25.4609 26 25.9696 26 26.5C26 27.0304 26.2107 27.5391 26.5858 27.9142C26.9609 28.2893 27.4696 28.5 28 28.5V28.5Z" stroke="#565656" strokeWidth="1.5" stroke-miterlimit="1.5" stroke-linecap="round" stroke-linejoin="round"></path> <path d="M20.05 26.5H25V16.1C25 15.9409 24.9368 15.7883 24.8243 15.6757C24.7117 15.5632 24.5591 15.5 24.4 15.5H11M15.65 26.5H13.6C13.5212 26.5 13.4432 26.4845 13.3704 26.4543C13.2976 26.4242 13.2315 26.38 13.1757 26.3243C13.12 26.2685 13.0758 26.2024 13.0457 26.1296C13.0155 26.0568 13 25.9788 13 25.9V21" stroke="#565656" strokeWidth="1.5" stroke-linecap="round"></path> <path d="M12 18.5H16" stroke="#565656" strokeWidth="1.5" stroke-linecap="round" stroke-linejoin="round"></path> <path d="M25 18.5H30.61C30.726 18.5 30.8395 18.5337 30.9367 18.5969C31.034 18.66 31.1108 18.75 31.158 18.856L32.948 22.884C32.9821 22.9605 32.9998 23.0433 33 23.127V25.9C33 25.9788 32.9845 26.0568 32.9543 26.1296C32.9242 26.2024 32.88 26.2685 32.8243 26.3243C32.7685 26.38 32.7024 26.4242 32.6296 26.4543C32.5568 26.4845 32.4788 26.5 32.4 26.5H30.5M25 26.5H26" stroke="#565656" strokeWidth="1.5" stroke-linecap="round"></path></svg>

